<mxfile host="app.diagrams.net" modified="2023-12-19T23:46:48.798Z" agent="Mozilla/5.0 (Windows NT 10.0; Win64; x64) AppleWebKit/537.36 (KHTML, like Gecko) Chrome/120.0.0.0 Safari/537.36" etag="z4utTK26uP3IzU9z3qiq" version="22.1.11" type="device">
  <diagram name="페이지-1" id="x_yewaCAZHS-CT8Duj3i">
    <mxGraphModel dx="2234" dy="1538" grid="0" gridSize="10" guides="1" tooltips="1" connect="1" arrows="1" fold="1" page="0" pageScale="1" pageWidth="827" pageHeight="1169" math="0" shadow="0">
      <root>
        <mxCell id="0" />
        <mxCell id="1" parent="0" />
        <mxCell id="Q0oJkmgqtFZWM4lEizwN-1" value="&lt;h1 style=&quot;font-size: 16px;&quot;&gt;&lt;div style=&quot;color: rgb(31, 35, 40); font-family: &amp;quot;D2 Coding&amp;quot;, Consolas, &amp;quot;Courier New&amp;quot;, monospace; font-size: 16px; line-height: 22px;&quot;&gt;&lt;div style=&quot;font-weight: normal; font-size: 16px;&quot;&gt;public &lt;span style=&quot;color: rgb(207, 34, 46); font-size: 16px;&quot;&gt;class&lt;/span&gt; &lt;span style=&quot;color: rgb(149, 56, 0); font-size: 16px;&quot;&gt;OverridingParentChildMain&lt;/span&gt; {&lt;/div&gt;&lt;br style=&quot;font-size: 16px;&quot;&gt;&lt;div style=&quot;font-weight: normal; font-size: 16px;&quot;&gt;&amp;nbsp; &amp;nbsp; &amp;nbsp; &amp;nbsp; &lt;span style=&quot;color: rgb(207, 34, 46); font-size: 16px;&quot;&gt;public&lt;/span&gt; &lt;span style=&quot;color: rgb(207, 34, 46); font-size: 16px;&quot;&gt;static&lt;/span&gt; &lt;span style=&quot;color: rgb(207, 34, 46); font-size: 16px;&quot;&gt;void&lt;/span&gt; &lt;span style=&quot;color: rgb(130, 80, 223); font-size: 16px;&quot;&gt;main&lt;/span&gt;(&lt;span style=&quot;color: rgb(207, 34, 46); font-size: 16px;&quot;&gt;String&lt;/span&gt;[] &lt;span style=&quot;color: rgb(149, 56, 0); font-size: 16px;&quot;&gt;args&lt;/span&gt;) {&lt;/div&gt;&lt;div style=&quot;font-weight: normal; font-size: 16px;&quot;&gt;&amp;nbsp; &amp;nbsp; &amp;nbsp; &amp;nbsp; &amp;nbsp; &amp;nbsp; OverridingChild&lt;span style=&quot;color: rgb(149, 56, 0); font-size: 16px;&quot;&gt; &lt;/span&gt;child&lt;span style=&quot;color: rgb(149, 56, 0); font-size: 16px;&quot;&gt; &lt;/span&gt;&lt;span style=&quot;color: rgb(207, 34, 46); font-size: 16px;&quot;&gt;=&lt;/span&gt; &lt;span style=&quot;color: rgb(207, 34, 46); font-size: 16px;&quot;&gt;new&lt;/span&gt; &lt;span style=&quot;color: rgb(130, 80, 223); font-size: 16px;&quot;&gt;OverridingChild&lt;/span&gt;();&lt;/div&gt;&lt;div style=&quot;font-weight: normal; font-size: 16px;&quot;&gt;&amp;nbsp; &amp;nbsp; &amp;nbsp; &amp;nbsp; &amp;nbsp; &amp;nbsp; child.&lt;span style=&quot;color: rgb(130, 80, 223); font-size: 16px;&quot;&gt;method1&lt;/span&gt;();&lt;/div&gt;&lt;div style=&quot;font-weight: normal; font-size: 16px;&quot;&gt;&amp;nbsp; &amp;nbsp; &amp;nbsp; &amp;nbsp; &amp;nbsp; &amp;nbsp; &lt;span style=&quot;color: rgb(110, 119, 129); font-size: 16px;&quot;&gt;/**&lt;/span&gt;&lt;/div&gt;&lt;div style=&quot;font-weight: normal; font-size: 16px;&quot;&gt;&lt;span style=&quot;color: rgb(110, 119, 129); font-size: 16px;&quot;&gt;&amp;nbsp; &amp;nbsp; &amp;nbsp; &amp;nbsp; &amp;nbsp; &amp;nbsp; &amp;nbsp; child.method2()호출시에는&amp;nbsp;&lt;/span&gt;&lt;/div&gt;&lt;div style=&quot;font-weight: normal; font-size: 16px;&quot;&gt;&lt;span style=&quot;color: rgb(110, 119, 129); font-size: 16px;&quot;&gt;&amp;nbsp; &amp;nbsp; &amp;nbsp; &amp;nbsp; &amp;nbsp; &amp;nbsp; &amp;nbsp; 자식에서 재정의된메쏘드가호출&lt;/span&gt;&lt;/div&gt;&lt;div style=&quot;font-weight: normal; font-size: 16px;&quot;&gt;&lt;span style=&quot;color: rgb(110, 119, 129); font-size: 16px;&quot;&gt;&amp;nbsp; &amp;nbsp; &amp;nbsp; &amp;nbsp; &amp;nbsp; &amp;nbsp; **/&lt;/span&gt;&lt;/div&gt;&lt;div style=&quot;font-size: 16px;&quot;&gt;&lt;span style=&quot;font-weight: normal;&quot;&gt;&amp;nbsp; &amp;nbsp; &amp;nbsp; &amp;nbsp; &amp;nbsp; &amp;nbsp; &lt;/span&gt;&lt;u style=&quot;&quot;&gt;&lt;i style=&quot;font-weight: normal;&quot;&gt;child.&lt;span style=&quot;color: rgb(130, 80, 223); font-size: 16px;&quot;&gt;method2&lt;/span&gt;();&lt;/i&gt;&lt;/u&gt;&lt;/div&gt;&lt;div style=&quot;font-size: 16px;&quot;&gt;&lt;u style=&quot;&quot;&gt;&lt;i style=&quot;font-weight: normal;&quot;&gt;&lt;br&gt;&lt;/i&gt;&lt;/u&gt;&lt;/div&gt;&lt;div style=&quot;font-weight: normal; font-size: 16px;&quot;&gt;&amp;nbsp; &amp;nbsp; &amp;nbsp; &amp;nbsp; &amp;nbsp; &amp;nbsp; child.&lt;span style=&quot;color: rgb(130, 80, 223); font-size: 16px;&quot;&gt;method3&lt;/span&gt;();&lt;/div&gt;&lt;div style=&quot;font-weight: normal; font-size: 16px;&quot;&gt;&amp;nbsp; &amp;nbsp; &amp;nbsp; &amp;nbsp; }&lt;/div&gt;&lt;div style=&quot;font-weight: normal; font-size: 16px;&quot;&gt;&amp;nbsp; &amp;nbsp; }&lt;/div&gt;&lt;/div&gt;&lt;/h1&gt;" style="text;html=1;spacing=5;spacingTop=-20;whiteSpace=wrap;overflow=hidden;rounded=0;fillColor=#dae8fc;strokeColor=#6c8ebf;fontSize=16;" parent="1" vertex="1">
          <mxGeometry x="-537" y="-150" width="532" height="302" as="geometry" />
        </mxCell>
        <mxCell id="Q0oJkmgqtFZWM4lEizwN-4" value="&lt;h1 style=&quot;font-size: 16px;&quot;&gt;&lt;font style=&quot;font-size: 16px;&quot;&gt;&lt;span style=&quot;background-color: initial; font-size: 16px;&quot;&gt;&amp;nbsp; &amp;nbsp;&lt;/span&gt;&lt;br style=&quot;font-size: 16px;&quot;&gt;&lt;/font&gt;&lt;/h1&gt;&lt;h1 style=&quot;font-size: 16px;&quot;&gt;&lt;font style=&quot;font-size: 16px;&quot;&gt;&amp;nbsp;/******부모로부터상속받은메쏘드*********************/&lt;/font&gt;&lt;/h1&gt;&lt;h1 style=&quot;font-size: 16px;&quot;&gt;&lt;font style=&quot;font-size: 16px;&quot;&gt;public void method1() {&lt;/font&gt;&lt;/h1&gt;&lt;h1 style=&quot;font-size: 16px;&quot;&gt;&lt;font style=&quot;font-size: 16px;&quot;&gt;&lt;span style=&quot;font-size: 16px;&quot;&gt;&amp;nbsp; &amp;nbsp;&amp;nbsp;&amp;nbsp;&amp;nbsp;&amp;nbsp;&amp;nbsp;&amp;nbsp;&lt;/span&gt;&lt;span style=&quot;font-weight: normal; font-size: 16px;&quot;&gt;&lt;span style=&quot;font-size: 16px;&quot;&gt;&amp;nbsp;&lt;/span&gt;&lt;font style=&quot;font-size: 16px;&quot;&gt;System.out.println(&quot;OverridingParent.method1()&quot;);&lt;/font&gt;&lt;/span&gt;&lt;/font&gt;&lt;/h1&gt;&lt;h1 style=&quot;font-size: 16px;&quot;&gt;&lt;font style=&quot;font-size: 16px;&quot;&gt;}&lt;/font&gt;&lt;/h1&gt;&lt;h1 style=&quot;font-size: 16px;&quot;&gt;&lt;font style=&quot;font-size: 16px;&quot;&gt;&lt;font color=&quot;#33ffff&quot; style=&quot;font-size: 16px;&quot;&gt;&amp;nbsp;&lt;/font&gt;&lt;font color=&quot;#9999ff&quot; style=&quot;font-size: 16px;&quot;&gt;/******&amp;nbsp;부모로부터 상속받은 자식메쏘드 method2***/&lt;/font&gt;&lt;/font&gt;&lt;/h1&gt;&lt;h1 style=&quot;font-size: 16px;&quot;&gt;&lt;font style=&quot;font-size: 16px;&quot; color=&quot;#9999ff&quot;&gt;&lt;span style=&quot;background-color: initial; font-size: 16px;&quot;&gt;&lt;span style=&quot;background-color: initial; font-size: 16px;&quot;&gt;public void method2() {&lt;/span&gt;&lt;/span&gt;&lt;/font&gt;&lt;/h1&gt;&lt;div style=&quot;font-size: 16px;&quot;&gt;&lt;font style=&quot;font-size: 16px;&quot; color=&quot;#9999ff&quot;&gt;&lt;span style=&quot;background-color: initial; font-size: 16px;&quot;&gt;&lt;span style=&quot;background-color: initial; font-size: 16px;&quot;&gt;&lt;b style=&quot;font-size: 16px;&quot;&gt;&amp;nbsp; &amp;nbsp; &amp;nbsp; &amp;nbsp;&lt;/b&gt;&lt;font style=&quot;font-size: 16px;&quot;&gt;/**&lt;/font&gt;&lt;/span&gt;&lt;/span&gt;&lt;span style=&quot;background-color: initial; font-size: 16px;&quot;&gt;&lt;font style=&quot;font-size: 16px;&quot;&gt;숨겨져서 외부에서호출이안된다.**/&lt;/font&gt;&lt;/span&gt;&lt;/font&gt;&lt;/div&gt;&lt;h1 style=&quot;font-size: 16px;&quot;&gt;&lt;font color=&quot;#9999ff&quot; style=&quot;font-weight: normal; font-size: 16px;&quot;&gt;&amp;nbsp; &amp;nbsp; &amp;nbsp; &amp;nbsp; System.out.println(&quot;OverridingParent.method2()&quot;);&lt;/font&gt;&lt;/h1&gt;&lt;h1 style=&quot;font-size: 16px;&quot;&gt;&lt;font color=&quot;#9999ff&quot; style=&quot;font-size: 16px; font-weight: normal;&quot;&gt;}&lt;/font&gt;&lt;/h1&gt;&lt;h1 style=&quot;font-size: 16px;&quot;&gt;&lt;font style=&quot;font-size: 16px;&quot;&gt;&amp;nbsp;&lt;font color=&quot;#0000ff&quot; style=&quot;font-size: 16px;&quot;&gt;/*******자식에서 재정의한 자식메쏘드 method2********/&lt;/font&gt;&lt;/font&gt;&lt;/h1&gt;&lt;h1 style=&quot;font-size: 16px;&quot;&gt;&lt;font style=&quot;font-size: 16px;&quot; color=&quot;#0000ff&quot;&gt;&lt;font style=&quot;font-size: 16px;&quot;&gt;&amp;nbsp;&lt;/font&gt;&lt;font style=&quot;font-size: 16px;&quot;&gt;@Override&lt;/font&gt;&lt;/font&gt;&lt;/h1&gt;&lt;h1 style=&quot;font-size: 16px;&quot;&gt;&lt;font color=&quot;#0000ff&quot; style=&quot;font-size: 16px;&quot;&gt;&amp;nbsp;public void method2() {&lt;/font&gt;&lt;/h1&gt;&lt;div style=&quot;font-size: 16px;&quot;&gt;&lt;font style=&quot;font-size: 16px;&quot; color=&quot;#0000ff&quot;&gt;&lt;font style=&quot;font-size: 16px;&quot;&gt;&amp;nbsp; &amp;nbsp; &amp;nbsp; &amp;nbsp; &lt;/font&gt;&lt;font style=&quot;font-size: 16px;&quot;&gt;&lt;font style=&quot;font-size: 16px;&quot;&gt;&amp;nbsp;/**&lt;/font&gt;&lt;span style=&quot;background-color: initial; font-size: 16px;&quot;&gt;자식에서재정의한 메쏘드만 호출된다.**/&lt;/span&gt;&lt;/font&gt;&lt;/font&gt;&lt;/div&gt;&lt;h1 style=&quot;font-size: 16px;&quot;&gt;&lt;font color=&quot;#0000ff&quot; style=&quot;font-weight: normal; font-size: 16px;&quot;&gt;&amp;nbsp; &amp;nbsp;&amp;nbsp;&amp;nbsp;&amp;nbsp;&amp;nbsp;&amp;nbsp;&amp;nbsp;&amp;nbsp;System.out.println(&quot;----재정의된 method2 start-------&quot;);&lt;/font&gt;&lt;/h1&gt;&lt;h1 style=&quot;font-size: 16px;&quot;&gt;&lt;font color=&quot;#0000ff&quot; style=&quot;font-weight: normal; font-size: 16px;&quot;&gt;&amp;nbsp; &amp;nbsp;&amp;nbsp;&amp;nbsp;&amp;nbsp;&amp;nbsp;&amp;nbsp;&amp;nbsp;&amp;nbsp;super.method2();&lt;/font&gt;&lt;/h1&gt;&lt;h1 style=&quot;font-size: 16px;&quot;&gt;&lt;font style=&quot;font-size: 16px;&quot;&gt;&lt;font color=&quot;#0000ff&quot; style=&quot;font-weight: normal; font-size: 16px;&quot;&gt;&amp;nbsp; &amp;nbsp;&amp;nbsp;&amp;nbsp;&amp;nbsp;&amp;nbsp;&amp;nbsp;&amp;nbsp;&amp;nbsp;/*&lt;/font&gt;&amp;nbsp;&amp;nbsp;&lt;/font&gt;&lt;/h1&gt;&lt;h1 style=&quot;font-size: 16px;&quot;&gt;&lt;font style=&quot;font-size: 16px;&quot;&gt;&amp;nbsp; &amp;nbsp; &amp;nbsp; &amp;nbsp; &amp;nbsp; &amp;nbsp; &lt;font style=&quot;font-size: 16px;&quot; color=&quot;#0000ff&quot;&gt;&amp;nbsp; &amp;lt;&amp;lt;&amp;nbsp; super&amp;nbsp; &amp;gt;&amp;gt;&lt;/font&gt;&lt;/font&gt;&lt;/h1&gt;&lt;h1 style=&quot;font-size: 16px;&quot;&gt;&lt;font color=&quot;#0000ff&quot; style=&quot;font-weight: normal; font-size: 16px;&quot;&gt;&amp;nbsp; &amp;nbsp; &amp;nbsp; &amp;nbsp; &amp;nbsp; &amp;nbsp; &amp;nbsp;- this와 같은 self참조변수&lt;/font&gt;&lt;/h1&gt;&lt;h1 style=&quot;font-size: 16px;&quot;&gt;&lt;font color=&quot;#0000ff&quot; style=&quot;font-weight: normal; font-size: 16px;&quot;&gt;&amp;nbsp; &amp;nbsp; &amp;nbsp; &amp;nbsp; &amp;nbsp; &amp;nbsp; &amp;nbsp;- this와 같은 주소값이다&lt;/font&gt;&lt;/h1&gt;&lt;h1 style=&quot;font-size: 16px;&quot;&gt;&lt;font color=&quot;#0000ff&quot; style=&quot;font-weight: normal; font-size: 16px;&quot;&gt;&amp;nbsp; &amp;nbsp; &amp;nbsp; &amp;nbsp; &amp;nbsp; &amp;nbsp; &amp;nbsp;- 재정의에의해서 숨겨진 메쏘드(멤버)를 호출할때사용&lt;/font&gt;&lt;/h1&gt;&lt;h1 style=&quot;font-size: 16px;&quot;&gt;&lt;font color=&quot;#0000ff&quot; style=&quot;font-weight: normal; font-size: 16px;&quot;&gt;&amp;nbsp; &amp;nbsp;&amp;nbsp;&amp;nbsp;&amp;nbsp;&amp;nbsp;&amp;nbsp;&amp;nbsp;&amp;nbsp;*/&lt;/font&gt;&lt;/h1&gt;&lt;h1 style=&quot;font-size: 16px;&quot;&gt;&lt;font color=&quot;#0000ff&quot; style=&quot;font-weight: normal; font-size: 16px;&quot;&gt;&amp;nbsp; &amp;nbsp;&amp;nbsp;&amp;nbsp;&amp;nbsp;&amp;nbsp;&amp;nbsp;&amp;nbsp;&amp;nbsp;System.out.println(&quot;OverringChild.method2() 추가작업&quot;);&lt;/font&gt;&lt;/h1&gt;&lt;h1 style=&quot;font-size: 16px;&quot;&gt;&lt;font color=&quot;#0000ff&quot; style=&quot;font-weight: normal; font-size: 16px;&quot;&gt;&amp;nbsp; &amp;nbsp;&amp;nbsp;&amp;nbsp;&amp;nbsp;&amp;nbsp;&amp;nbsp;&amp;nbsp;&amp;nbsp;System.out.println(&quot;----재정의된 method2 end----------&quot;)&lt;/font&gt;&lt;/h1&gt;&lt;h1 style=&quot;font-size: 16px;&quot;&gt;&lt;font style=&quot;font-size: 16px;&quot;&gt;&lt;span style=&quot;font-weight: normal; font-size: 16px;&quot;&gt;&amp;nbsp;&lt;/span&gt;}&lt;/font&gt;&lt;/h1&gt;&lt;h1 style=&quot;font-size: 16px;&quot;&gt;&lt;font style=&quot;font-size: 16px;&quot;&gt;&lt;span style=&quot;font-size: 16px;&quot;&gt;&amp;nbsp;&lt;/span&gt;&lt;font style=&quot;font-size: 16px;&quot;&gt;public void method3() {&lt;/font&gt;&lt;/font&gt;&lt;/h1&gt;&lt;h1 style=&quot;font-size: 16px;&quot;&gt;&lt;font style=&quot;font-size: 16px;&quot;&gt;&lt;span style=&quot;font-size: 16px;&quot;&gt;&amp;nbsp; &amp;nbsp;&amp;nbsp;&amp;nbsp;&amp;nbsp;&amp;nbsp;&amp;nbsp;&lt;/span&gt;&lt;span style=&quot;font-weight: normal; font-size: 16px;&quot;&gt;&lt;span style=&quot;font-size: 16px;&quot;&gt;&amp;nbsp;&amp;nbsp;&lt;/span&gt;&lt;font style=&quot;font-size: 16px;&quot;&gt;System.out.println(&quot;OverridingChild.method3()&quot;);&lt;/font&gt;&lt;/span&gt;&lt;/font&gt;&lt;/h1&gt;&lt;h1 style=&quot;font-size: 16px;&quot;&gt;&lt;font style=&quot;font-size: 16px;&quot;&gt;&lt;span style=&quot;font-size: 16px;&quot;&gt;&amp;nbsp;&lt;/span&gt;&lt;font style=&quot;font-size: 16px;&quot;&gt;}&lt;/font&gt;&lt;/font&gt;&lt;/h1&gt;&lt;h1 style=&quot;font-size: 16px;&quot;&gt;&lt;br style=&quot;font-size: 16px;&quot;&gt;&lt;/h1&gt;&lt;h1 style=&quot;font-size: 16px;&quot;&gt;&lt;font style=&quot;font-size: 16px;&quot;&gt;&lt;br style=&quot;font-size: 16px;&quot;&gt;&lt;/font&gt;&lt;/h1&gt;&lt;h1 style=&quot;font-size: 16px;&quot;&gt;&lt;font style=&quot;font-size: 16px;&quot;&gt;&amp;nbsp;&lt;/font&gt;&lt;/h1&gt;" style="text;html=1;strokeColor=#b85450;fillColor=#f8cecc;spacing=5;spacingTop=-20;whiteSpace=wrap;overflow=hidden;rounded=0;fontSize=16;align=left;" parent="1" vertex="1">
          <mxGeometry x="122" y="-461" width="531" height="837" as="geometry" />
        </mxCell>
        <mxCell id="Q0oJkmgqtFZWM4lEizwN-6" value="" style="endArrow=classic;html=1;rounded=0;entryX=0;entryY=0.446;entryDx=0;entryDy=0;entryPerimeter=0;strokeWidth=4;fillColor=#f8cecc;strokeColor=#b85450;" parent="1" edge="1" target="Q0oJkmgqtFZWM4lEizwN-4">
          <mxGeometry width="50" height="50" relative="1" as="geometry">
            <mxPoint x="-379" y="79" as="sourcePoint" />
            <mxPoint x="116" y="44" as="targetPoint" />
          </mxGeometry>
        </mxCell>
        <mxCell id="Q0oJkmgqtFZWM4lEizwN-9" value="" style="endArrow=classic;html=1;rounded=0;strokeWidth=4;fillColor=#f8cecc;strokeColor=#b85450;" parent="1" edge="1">
          <mxGeometry width="50" height="50" relative="1" as="geometry">
            <mxPoint x="118" y="253" as="sourcePoint" />
            <mxPoint x="-379" y="85" as="targetPoint" />
          </mxGeometry>
        </mxCell>
        <mxCell id="HA3GW_AbqvUbS8MEMvi7-1" value="&lt;h1&gt;#33&lt;/h1&gt;" style="text;html=1;strokeColor=#b85450;fillColor=#f8cecc;spacing=5;spacingTop=-20;whiteSpace=wrap;overflow=hidden;rounded=0;fontColor=#FF0000;" vertex="1" parent="1">
          <mxGeometry x="72" y="-461" width="50" height="46" as="geometry" />
        </mxCell>
        <mxCell id="HA3GW_AbqvUbS8MEMvi7-2" value="&lt;h1 style=&quot;font-size: 17px;&quot;&gt;#33&lt;/h1&gt;" style="text;html=1;strokeColor=#b85450;fillColor=#f8cecc;spacing=5;spacingTop=-20;whiteSpace=wrap;overflow=hidden;rounded=0;fontColor=#FF0000;fontSize=17;" vertex="1" parent="1">
          <mxGeometry x="-424" y="68" width="40" height="24" as="geometry" />
        </mxCell>
        <mxCell id="HA3GW_AbqvUbS8MEMvi7-3" value="" style="endArrow=classic;html=1;rounded=0;fillColor=#f8cecc;strokeColor=#b85450;strokeWidth=4;" edge="1" parent="1">
          <mxGeometry width="50" height="50" relative="1" as="geometry">
            <mxPoint x="-374" y="-95" as="sourcePoint" />
            <mxPoint x="-376" y="72" as="targetPoint" />
          </mxGeometry>
        </mxCell>
        <mxCell id="HA3GW_AbqvUbS8MEMvi7-6" value="" style="endArrow=classic;html=1;rounded=0;fillColor=#f8cecc;strokeColor=#b85450;strokeWidth=4;" edge="1" parent="1">
          <mxGeometry width="50" height="50" relative="1" as="geometry">
            <mxPoint x="120" y="-85" as="sourcePoint" />
            <mxPoint x="120" y="255" as="targetPoint" />
          </mxGeometry>
        </mxCell>
      </root>
    </mxGraphModel>
  </diagram>
</mxfile>
